<svg width="96" height="96" fill="none" xmlns="http://www.w3.org/2000/svg"><path fill="#fff" d="M0 0h96v96H0z"/><path fill="#A0E439" d="M0 88h8v8H0z"/><path fill="#9932A7" d="M8 88h8v8H8z"/><path fill="#E430C5" d="M16 88h8v8h-8z"/><path fill="#2CA6E7" d="M24 88h8v8h-8z"/><path fill="#EAA13A" d="M32 88h8v8h-8z"/><path fill="#308EB0" d="M40 88h8v8h-8z"/><path fill="#085C42" d="M48 88h8v8h-8z"/><path fill="#E2ACCC" d="M56 88h8v8h-8z"/><path fill="#515CDC" d="M64 88h8v8h-8z"/><path fill="#4952D1" d="M72 88h8v8h-8z"/><path fill="#9478DF" d="M80 88h8v8h-8z"/><path fill="#FC4E36" d="M88 88h8v8h-8z"/><path fill="#5E6D66" d="M0 80h8v8H0z"/><path fill="#BCB23F" d="M8 80h8v8H8z"/><path fill="#FDC4E4" d="M16 80h8v8h-8z"/><path fill="#EC837F" d="M24 80h8v8h-8z"/><path fill="#A009D4" d="M32 80h8v8h-8z"/><path fill="#0BF3FD" d="M40 80h8v8h-8z"/><path fill="#8F1FB2" d="M48 80h8v8h-8z"/><path fill="#DA8729" d="M56 80h8v8h-8z"/><path fill="#8CFAC9" d="M64 80h8v8h-8z"/><path fill="#0AEF3D" d="M72 80h8v8h-8z"/><path fill="#A80E4C" d="M80 80h8v8h-8z"/><path fill="#FE6BD3" d="M88 80h8v8h-8z"/><path fill="#7B7D0F" d="M0 72h8v8H0z"/><path fill="#B1F234" d="M8 72h8v8H8z"/><path fill="#66113A" d="M16 72h8v8h-8z"/><path fill="#B6DDDC" d="M24 72h8v8h-8z"/><path fill="#25B903" d="M32 72h8v8h-8z"/><path fill="#DD7E62" d="M40 72h8v8h-8z"/><path fill="#D63A81" d="M48 72h8v8h-8z"/><path fill="#EA3CF3" d="M56 72h8v8h-8z"/><path fill="#AFC4B3" d="M64 72h8v8h-8z"/><path fill="#539BC3" d="M72 72h8v8h-8z"/><path fill="#D0D7F4" d="M80 72h8v8h-8z"/><path fill="#031C79" d="M88 72h8v8h-8z"/><path fill="#360F82" d="M0 64h8v8H0z"/><path fill="#DF836E" d="M8 64h8v8H8z"/><path fill="#F544D0" d="M16 64h8v8h-8z"/><path fill="#7DECE6" d="M24 64h8v8h-8z"/><path fill="#26F415" d="M32 64h8v8h-8z"/><path fill="#41A2C5" d="M40 64h8v8h-8z"/><path fill="#B262AB" d="M48 64h8v8h-8z"/><path fill="#873F0D" d="M56 64h8v8h-8z"/><path fill="#A0180A" d="M64 64h8v8h-8z"/><path fill="#3716A3" d="M72 64h8v8h-8z"/><path fill="#0C0184" d="M80 64h8v8h-8z"/><path fill="#DACD6F" d="M88 64h8v8h-8z"/><path fill="#D86E84" d="M0 56h8v8H0z"/><path fill="#7ADC6D" d="M8 56h8v8H8z"/><path fill="#A19CDF" d="M16 56h8v8h-8z"/><path fill="#A25C8E" d="M24 56h8v8h-8z"/><path fill="#754DAD" d="M32 56h8v8h-8z"/><path fill="#37C0EE" d="M40 56h8v8h-8z"/><path fill="#D9FCB8" d="M48 56h8v8h-8z"/><path fill="#0385B9" d="M56 56h8v8h-8z"/><path fill="#7DC942" d="M64 56h8v8h-8z"/><path fill="#4C3E4D" d="M72 56h8v8h-8z"/><path fill="#45E3CC" d="M80 56h8v8h-8z"/><path fill="#3BA817" d="M88 56h8v8h-8z"/><path fill="#5683E0" d="M0 48h8v8H0z"/><path fill="#72EA55" d="M8 48h8v8H8z"/><path fill="#9F8919" d="M16 48h8v8h-8z"/><path fill="#33B684" d="M24 48h8v8h-8z"/><path fill="#827C0E" d="M32 48h8v8h-8z"/><path fill="#58964D" d="M40 48h8v8h-8z"/><path fill="#7FDD9F" d="M48 48h8v8h-8z"/><path fill="#ED3EE5" d="M56 48h8v8h-8z"/><path fill="#1E1BDC" d="M64 48h8v8h-8z"/><path fill="#8DC7A1" d="M72 48h8v8h-8z"/><path fill="#51EABE" d="M80 48h8v8h-8z"/><path fill="#F99A46" d="M88 48h8v8h-8z"/><path fill="#4E09EF" d="M0 40h8v8H0z"/><path fill="#59FB72" d="M8 40h8v8H8z"/><path fill="#D90746" d="M16 40h8v8h-8z"/><path fill="#86BD1A" d="M24 40h8v8h-8z"/><path fill="#89366C" d="M32 40h8v8h-8z"/><path fill="#50DED0" d="M40 40h8v8h-8z"/><path fill="#FC6473" d="M48 40h8v8h-8z"/><path fill="#C92907" d="M56 40h8v8h-8z"/><path fill="#E8299A" d="M64 40h8v8h-8z"/><path fill="#9C9DD5" d="M72 40h8v8h-8z"/><path fill="#D0F3BB" d="M80 40h8v8h-8z"/><path fill="#6E17A6" d="M88 40h8v8h-8z"/><path fill="#38E883" d="M0 32h8v8H0z"/><path fill="#D769DC" d="M8 32h8v8H8z"/><path fill="#22672E" d="M16 32h8v8h-8z"/><path fill="#B3A044" d="M24 32h8v8h-8z"/><path fill="#0A0525" d="M32 32h8v8h-8z"/><path fill="#9E1F26" d="M40 32h8v8h-8z"/><path fill="#33D3B9" d="M48 32h8v8h-8z"/><path fill="#1CD770" d="M56 32h8v8h-8z"/><path fill="#EB4F27" d="M64 32h8v8h-8z"/><path fill="#3C6A67" d="M72 32h8v8h-8z"/><path fill="#562D6F" d="M80 32h8v8h-8z"/><path fill="#02AC42" d="M88 32h8v8h-8z"/><path fill="#618200" d="M0 24h8v8H0z"/><path fill="#2CB04D" d="M8 24h8v8H8z"/><path fill="#C51A44" d="M16 24h8v8h-8z"/><path fill="#1B88C0" d="M24 24h8v8h-8z"/><path fill="#8B2439" d="M32 24h8v8h-8z"/><path fill="#6FB350" d="M40 24h8v8h-8z"/><path fill="#0CED60" d="M48 24h8v8h-8z"/><path fill="#5A30DA" d="M56 24h8v8h-8z"/><path fill="#936319" d="M64 24h8v8h-8z"/><path fill="#0F4FB9" d="M72 24h8v8h-8z"/><path fill="#9A23A5" d="M80 24h8v8h-8z"/><path fill="#18C7FE" d="M88 24h8v8h-8z"/><path fill="#B5729E" d="M0 16h8v8H0z"/><path fill="#295055" d="M8 16h8v8H8z"/><path fill="#1F1091" d="M16 16h8v8h-8z"/><path fill="#EB3FF3" d="M24 16h8v8h-8z"/><path fill="#92B468" d="M32 16h8v8h-8z"/><path fill="#7F8346" d="M40 16h8v8h-8z"/><path fill="#CECAC9" d="M48 16h8v8h-8z"/><path fill="#82DEC7" d="M56 16h8v8h-8z"/><path fill="#788124" d="M64 16h8v8h-8z"/><path fill="#5A30DA" d="M72 16h8v8h-8z"/><path fill="#CD827D" d="M80 16h8v8h-8z"/><path fill="#854112" d="M88 16h8v8h-8z"/><path fill="#D5353D" d="M0 8h8v8H0z"/><path fill="#DF4B49" d="M8 8h8v8H8z"/><path fill="#61C899" d="M16 8h8v8h-8z"/><path fill="#E1FAB6" d="M24 8h8v8h-8z"/><path fill="#B8D56B" d="M32 8h8v8h-8z"/><path fill="#C8AED1" d="M40 8h8v8h-8z"/><path fill="#854112" d="M48 8h8v8h-8z"/><path fill="#BBAB70" d="M56 8h8v8h-8z"/><path fill="#1F1091" d="M64 8h8v8h-8z"/><path fill="#86E9FE" d="M72 8h8v8h-8z"/><path fill="#854112" d="M80 8h8v8h-8z"/><path fill="#AEFF48" d="M88 8h8v8h-8z"/><path fill="#86E9FE" d="M0 0h8v8H0z"/><path fill="#F2EB05" d="M8 0h8v8H8z"/><path fill="#0A7A32" d="M16 0h8v8h-8z"/><path fill="#1F1091" d="M24 0h8v8h-8z"/><path fill="#FDB141" d="M32 0h8v8h-8z"/><path fill="#854112" d="M40 0h8v8h-8z"/><path fill="#F2EB05" d="M48 0h8v8h-8z"/><path fill="#7627A6" d="M56 0h8v8h-8z"/><path fill="#EB3FF3" d="M64 0h8v8h-8z"/><path fill="#BBAB70" d="M72 0h8v8h-8z"/><path fill="#21A0E5" d="M80 0h8v8h-8z"/><path fill="#077E9E" d="M88 0h8v8h-8z"/><path d="M23.724 52.147h0l.004.003c.735.551 1.118 1.345 1.118 2.456 0 .992-.37 1.731-1.112 2.276-.763.547-1.87.85-3.376.85-2.052 0-3.497-.431-4.425-1.207-.91-.762-1.403-1.926-1.403-3.588v-.5H6.917v.5c0 2.155.551 4.07 1.667 5.728l.002.002c1.129 1.656 2.753 2.949 4.844 3.888l.003.001c2.092.925 4.403 1.384 6.925 1.384 3.616 0 6.552-.8 8.76-2.451l.001-.002c2.228-1.682 3.341-4.01 3.341-6.925 0-2.618-.907-4.83-2.722-6.598-1.797-1.75-4.617-3.18-8.4-4.317-2.015-.61-3.507-1.25-4.502-1.914-.934-.632-1.339-1.362-1.339-2.2 0-.955.372-1.701 1.141-2.281h0l.005-.003c.775-.598 1.905-.93 3.452-.93 1.59 0 2.753.391 3.557 1.105h0l.003.003c.793.692 1.213 1.678 1.213 3.03v.5h7.592v-.5c0-2.01-.523-3.821-1.576-5.417-1.037-1.594-2.497-2.817-4.36-3.673-1.864-.87-3.973-1.299-6.32-1.299-2.326 0-4.444.39-6.344 1.181h-.001c-1.887.792-3.365 1.907-4.41 3.356h0c-1.03 1.437-1.544 3.078-1.544 4.906 0 3.556 1.964 6.347 5.712 8.372h0c1.37.738 3.21 1.481 5.51 2.233h.002c2.28.731 3.79 1.413 4.595 2.03zM43.034 63.5h.5V52.228h5.279c3.87 0 6.965-.92 9.221-2.82h0c2.28-1.923 3.408-4.546 3.408-7.81 0-2.147-.511-4.077-1.545-5.773-1.035-1.715-2.517-3.031-4.429-3.95-1.896-.916-4.082-1.367-6.545-1.367h-12.98V63.5h7.091zm9.534-18.715l-.003.002c-.784.708-1.97 1.102-3.642 1.102h-5.389v-9.042h5.538c1.521.028 2.656.49 3.466 1.34.82.858 1.246 1.993 1.246 3.456 0 1.416-.425 2.438-1.216 3.142zm23.227 8.048L81.51 63.24l.142.259h8.842l-.448-.755-9.407-15.874 9.167-15.61.442-.753H81.497l-.142.26-5.56 10.224-5.559-10.223-.142-.261h-8.751l.442.753 9.167 15.61-9.407 15.874-.448.755H69.94l.142-.26 5.714-10.407z" fill="#000" stroke="#fff"/></svg>