<svg width="96" height="96" fill="none" xmlns="http://www.w3.org/2000/svg"><path fill="#fff" d="M0 0h96v96H0z"/><path fill="#A0E439" d="M0 88h8v8H0z"/><path fill="#9932A7" d="M8 88h8v8H8z"/><path fill="#E430C5" d="M16 88h8v8h-8z"/><path fill="#2CA6E7" d="M24 88h8v8h-8z"/><path fill="#EAA13A" d="M32 88h8v8h-8z"/><path fill="#308EB0" d="M40 88h8v8h-8z"/><path fill="#085C42" d="M48 88h8v8h-8z"/><path fill="#E2ACCC" d="M56 88h8v8h-8z"/><path fill="#515CDC" d="M64 88h8v8h-8z"/><path fill="#4952D1" d="M72 88h8v8h-8z"/><path fill="#9478DF" d="M80 88h8v8h-8z"/><path fill="#FC4E36" d="M88 88h8v8h-8z"/><path fill="#5E6D66" d="M0 80h8v8H0z"/><path fill="#BCB23F" d="M8 80h8v8H8z"/><path fill="#FDC4E4" d="M16 80h8v8h-8z"/><path fill="#EC837F" d="M24 80h8v8h-8z"/><path fill="#A009D4" d="M32 80h8v8h-8z"/><path fill="#0BF3FD" d="M40 80h8v8h-8z"/><path fill="#8F1FB2" d="M48 80h8v8h-8z"/><path fill="#DA8729" d="M56 80h8v8h-8z"/><path fill="#8CFAC9" d="M64 80h8v8h-8z"/><path fill="#0AEF3D" d="M72 80h8v8h-8z"/><path fill="#A80E4C" d="M80 80h8v8h-8z"/><path fill="#FE6BD3" d="M88 80h8v8h-8z"/><path fill="#7B7D0F" d="M0 72h8v8H0z"/><path fill="#B1F234" d="M8 72h8v8H8z"/><path fill="#66113A" d="M16 72h8v8h-8z"/><path fill="#B6DDDC" d="M24 72h8v8h-8z"/><path fill="#25B903" d="M32 72h8v8h-8z"/><path fill="#DD7E62" d="M40 72h8v8h-8z"/><path fill="#D63A81" d="M48 72h8v8h-8z"/><path fill="#EA3CF3" d="M56 72h8v8h-8z"/><path fill="#AFC4B3" d="M64 72h8v8h-8z"/><path fill="#539BC3" d="M72 72h8v8h-8z"/><path fill="#D0D7F4" d="M80 72h8v8h-8z"/><path fill="#031C79" d="M88 72h8v8h-8z"/><path fill="#B5729E" d="M0 16h8v8H0z"/><path fill="#295055" d="M8 16h8v8H8z"/><path fill="#1F1091" d="M16 16h8v8h-8z"/><path fill="#EB3FF3" d="M24 16h8v8h-8z"/><path fill="#92B468" d="M32 16h8v8h-8z"/><path fill="#7F8346" d="M40 16h8v8h-8z"/><path fill="#CECAC9" d="M48 16h8v8h-8z"/><path fill="#82DEC7" d="M56 16h8v8h-8z"/><path fill="#788124" d="M64 16h8v8h-8z"/><path fill="#5A30DA" d="M72 16h8v8h-8z"/><path fill="#CD827D" d="M80 16h8v8h-8z"/><path fill="#854112" d="M88 16h8v8h-8z"/><path fill="#D5353D" d="M0 8h8v8H0z"/><path fill="#DF4B49" d="M8 8h8v8H8z"/><path fill="#61C899" d="M16 8h8v8h-8z"/><path fill="#E1FAB6" d="M24 8h8v8h-8z"/><path fill="#B8D56B" d="M32 8h8v8h-8z"/><path fill="#C8AED1" d="M40 8h8v8h-8z"/><path fill="#854112" d="M48 8h8v8h-8z"/><path fill="#BBAB70" d="M56 8h8v8h-8z"/><path fill="#1F1091" d="M64 8h8v8h-8z"/><path fill="#86E9FE" d="M72 8h8v8h-8z"/><path fill="#854112" d="M80 8h8v8h-8z"/><path fill="#AEFF48" d="M88 8h8v8h-8z"/><path fill="#86E9FE" d="M0 0h8v8H0z"/><path fill="#F2EB05" d="M8 0h8v8H8z"/><path fill="#0A7A32" d="M16 0h8v8h-8z"/><path fill="#1F1091" d="M24 0h8v8h-8z"/><path fill="#FDB141" d="M32 0h8v8h-8z"/><path fill="#854112" d="M40 0h8v8h-8z"/><path fill="#F2EB05" d="M48 0h8v8h-8z"/><path fill="#7627A6" d="M56 0h8v8h-8z"/><path fill="#EB3FF3" d="M64 0h8v8h-8z"/><path fill="#BBAB70" d="M72 0h8v8h-8z"/><path fill="#21A0E5" d="M80 0h8v8h-8z"/><path fill="#077E9E" d="M88 0h8v8h-8z"/><path fill="#fff" d="M0 24h96v48H0z"/><path d="M23.003 52.544h0l.008.006c.591.443.919 1.078.919 2.056 0 .84-.3 1.426-.906 1.871-.648.463-1.637.755-3.082.755-1.994 0-3.304-.421-4.104-1.09-.767-.642-1.224-1.646-1.224-3.206v-1H6v1c0 2.245.576 4.26 1.752 6.008h0l.004.005c1.19 1.744 2.891 3.091 5.052 4.062l.006.003c2.163.956 4.544 1.425 7.128 1.425 3.685 0 6.739-.814 9.058-2.55l.004-.003c2.36-1.782 3.54-4.261 3.54-7.324 0-2.747-.958-5.09-2.873-6.956-1.88-1.832-4.789-3.29-8.605-4.438-1.995-.603-3.432-1.227-4.368-1.85-.828-.56-1.117-1.15-1.117-1.785 0-.797.298-1.396.942-1.882h0l.008-.006c.658-.507 1.665-.825 3.147-.825 1.512 0 2.541.37 3.225.978h0l.007.006c.662.578 1.042 1.414 1.042 2.652v1H32.543v-1c0-2.101-.548-4.008-1.657-5.69-1.094-1.68-2.63-2.962-4.57-3.853-1.938-.905-4.12-1.345-6.528-1.345-2.383 0-4.567.4-6.536 1.22h0-.003c-1.957.821-3.515 1.988-4.621 3.524l-.002.002C7.532 35.84 6.99 37.583 6.99 39.511c0 3.787 2.11 6.724 5.974 8.812h0c1.407.758 3.279 1.512 5.592 2.268l.005.002c2.273.728 3.711 1.39 4.443 1.95zM42.618 64h1V52.728h4.779c3.945 0 7.168-.938 9.543-2.938h0c2.406-2.03 3.585-4.8 3.585-8.191 0-2.23-.532-4.252-1.617-6.034-1.089-1.803-2.647-3.183-4.64-4.14-1.975-.955-4.237-1.417-6.762-1.417h-13.48V64h7.592zm9.201-19.59l-.006.006c-.66.596-1.707.973-3.307.973h-4.888v-8.042h5.033c1.416.027 2.41.453 3.109 1.185.715.749 1.108 1.753 1.108 3.11 0 1.31-.388 2.181-1.049 2.769h0zm23.56 9.462l5.276 9.61.284.518H90.956l-.895-1.51-9.257-15.62 9.017-15.356.885-1.506h-9.922l-.284.522-5.12 9.415-5.12-9.415-.284-.522h-9.922l.885 1.506 9.017 15.356-9.257 15.62-.895 1.51H69.818l.285-.519 5.276-9.61z" fill="#000" stroke="#fff" stroke-width="2"/></svg>